<?xml version="1.0" standalone="no"?>
<!DOCTYPE svg PUBLIC "-//W3C//DTD SVG 20010904//EN"
 "http://www.w3.org/TR/2001/REC-SVG-20010904/DTD/svg10.dtd">
<svg version="1.0" xmlns="http://www.w3.org/2000/svg"
 width="1200.000000pt" height="1200.000000pt" viewBox="0 0 1200.000000 1200.000000"
 preserveAspectRatio="xMidYMid meet">

<g transform="translate(0.000000,1200.000000) scale(0.100000,-0.100000)"
fill="#000000" stroke="none">
<path d="M2992 9007 c-188 -188 -342 -347 -342 -352 0 -6 595 -605 1322 -1332
l1323 -1323 -1325 -1325 -1325 -1325 353 -352 352 -353 1325 1325 1325 1325
1325 -1325 1325 -1325 352 353 353 352 -1325 1325 -1325 1325 1323 1323 c727
727 1322 1327 1322 1332 0 13 -682 695 -695 695 -6 0 -605 -595 -1332 -1322
l-1323 -1323 -1323 1323 c-727 727 -1327 1322 -1332 1322 -6 0 -164 -154 -353
-343z"/>
</g>
</svg>
