<?xml version="1.0" standalone="no"?>
<!DOCTYPE svg PUBLIC "-//W3C//DTD SVG 20010904//EN"
 "http://www.w3.org/TR/2001/REC-SVG-20010904/DTD/svg10.dtd">
<svg version="1.0" xmlns="http://www.w3.org/2000/svg"
 width="512.000000pt" height="512.000000pt" viewBox="0 0 512.000000 512.000000"
 preserveAspectRatio="xMidYMid meet">

<g transform="translate(0.000000,512.000000) scale(0.100000,-0.100000)"
fill="#000000" stroke="none">
<path d="M368 4984 c-87 -21 -156 -60 -224 -128 -110 -110 -144 -208 -144
-412 0 -118 2 -134 21 -158 15 -19 30 -26 54 -26 24 0 39 7 54 26 19 24 21 40
21 145 0 65 5 141 11 169 22 103 120 204 229 234 81 23 846 24 890 1 59 -30
70 -58 70 -167 l0 -100 -78 -77 c-90 -88 -131 -144 -177 -244 -88 -191 -84
-419 11 -613 137 -279 456 -443 759 -390 235 41 426 181 529 389 62 124 79
210 73 357 -8 195 -71 336 -215 480 -46 47 -88 95 -93 108 -16 41 -11 164 9
202 35 71 35 71 512 68 411 -3 426 -4 472 -25 63 -29 134 -96 166 -158 l27
-50 5 -475 c6 -531 4 -511 81 -595 22 -23 61 -52 87 -63 93 -40 249 -38 339 4
19 10 74 56 122 104 66 66 104 95 161 124 100 48 203 70 300 61 408 -35 652
-472 464 -832 -19 -36 -34 -78 -34 -93 0 -34 38 -70 73 -70 35 0 59 25 96 97
96 191 105 416 24 607 -122 290 -439 477 -743 439 -102 -13 -209 -48 -288 -95
-31 -18 -99 -74 -152 -125 -86 -81 -102 -92 -144 -98 -116 -18 -205 19 -226
93 -6 23 -10 205 -10 468 0 401 -1 436 -20 495 -50 164 -200 298 -369 329 -30
6 -233 10 -461 10 -477 0 -481 -1 -567 -86 -69 -68 -87 -127 -81 -268 3 -89 7
-107 33 -155 16 -29 54 -74 83 -99 122 -104 191 -244 199 -402 7 -120 -7 -188
-59 -292 -113 -225 -367 -352 -608 -304 -343 68 -545 405 -441 737 28 87 82
169 171 254 103 100 120 139 120 285 0 137 -19 189 -93 257 -77 71 -91 73
-566 72 -318 0 -429 -4 -473 -15z"/>
<path d="M45 4048 c-47 -25 -45 20 -44 -1127 0 -1211 -3 -1156 69 -1275 100
-167 276 -244 535 -234 81 3 98 6 116 25 27 26 29 75 5 102 -15 16 -36 19
-164 24 -167 5 -210 17 -287 75 -36 27 -60 56 -85 106 l-35 69 -5 1106 c-3
608 -6 1107 -8 1108 -7 7 -62 33 -69 33 -4 0 -17 -6 -28 -12z"/>
<path d="M3545 2943 c-28 -10 -64 -28 -81 -40 -66 -47 -114 -152 -114 -249 0
-33 -4 -43 -20 -47 -11 -3 -94 -51 -185 -107 l-166 -102 -36 13 -37 14 -47
199 c-27 117 -53 205 -63 214 -15 15 -45 17 -236 17 -191 0 -221 -2 -236 -17
-10 -9 -36 -97 -63 -214 l-47 -199 -36 -13 -36 -14 -173 106 c-96 59 -184 106
-198 106 -18 0 -63 -38 -173 -147 -82 -82 -151 -158 -155 -171 -7 -31 1 -48
113 -230 l96 -155 -14 -35 -14 -36 -198 -47 c-114 -27 -205 -54 -215 -63 -11
-11 -17 -40 -19 -91 l-4 -75 -99 0 c-114 0 -139 -13 -139 -73 0 -57 26 -71
141 -75 l99 -4 0 -63 c0 -96 6 -100 200 -146 252 -61 234 -54 249 -94 12 -35
12 -36 -93 -207 -60 -97 -106 -183 -106 -197 0 -18 37 -62 148 -173 81 -82
158 -152 171 -155 30 -7 56 5 235 117 l148 91 36 -14 35 -14 48 -199 c37 -158
52 -202 69 -216 20 -16 45 -18 230 -18 185 0 210 2 230 18 17 14 32 58 69 216
l48 199 35 14 36 14 154 -95 c182 -112 199 -120 230 -113 13 4 89 73 171 155
110 111 147 155 147 173 0 14 -46 100 -106 197 -104 169 -106 174 -93 205 7
18 14 34 15 36 2 2 92 25 201 51 159 39 201 52 216 71 17 21 18 41 15 235 -3
183 -5 216 -20 230 -10 10 -96 35 -214 63 l-198 47 -14 35 -14 36 95 154 c52
85 99 164 106 176 23 44 13 64 -80 159 l-91 92 3 114 c4 126 15 154 72 188 24
15 50 20 103 20 96 0 123 -11 179 -77 91 -105 227 -189 363 -224 96 -24 259
-26 351 -3 158 40 211 86 177 153 -23 44 -54 48 -139 16 -58 -22 -94 -29 -184
-33 -101 -4 -121 -2 -196 21 -100 32 -200 99 -271 181 -72 85 -126 108 -256
113 -83 3 -116 0 -155 -14z m-861 -241 c3 -5 24 -87 46 -183 23 -96 47 -182
53 -192 15 -22 161 -86 199 -87 17 0 86 36 190 100 l163 100 88 -88 88 -89
-100 -163 c-61 -100 -101 -174 -101 -189 1 -37 65 -184 87 -198 10 -7 97 -31
193 -54 96 -22 178 -43 182 -45 5 -3 8 -60 8 -128 l0 -122 -182 -43 c-101 -24
-190 -47 -199 -52 -17 -9 -89 -172 -89 -202 0 -24 12 -46 114 -212 l86 -140
-88 -88 -88 -88 -164 101 c-90 55 -173 100 -184 100 -11 0 -60 -17 -109 -37
-106 -44 -98 -29 -152 -266 l-39 -167 -126 0 -126 0 -39 167 c-54 237 -46 222
-152 266 -49 20 -98 37 -109 37 -11 0 -94 -45 -184 -101 l-163 -100 -89 88
-88 88 86 140 c103 168 114 188 114 214 0 26 -68 183 -85 197 -7 5 -97 30
-200 54 l-186 44 3 125 3 125 187 46 c103 25 194 52 201 60 20 22 77 165 77
193 0 13 -45 97 -101 187 l-100 163 88 89 89 88 162 -100 c105 -64 173 -100
190 -100 38 1 184 65 199 87 6 10 30 96 53 192 22 96 43 178 46 183 3 4 59 8
124 8 65 0 121 -4 124 -8z"/>
<path d="M2425 1913 c-122 -44 -214 -127 -268 -241 -30 -63 -32 -73 -32 -182
0 -109 2 -119 32 -183 44 -93 119 -169 212 -215 73 -36 77 -37 191 -37 114 0
118 1 191 37 93 46 168 122 212 215 30 64 32 74 32 183 0 109 -2 119 -32 183
-44 93 -119 169 -211 215 -70 34 -83 37 -176 40 -77 2 -113 -2 -151 -15z m238
-149 c25 -8 66 -33 91 -55 41 -36 86 -108 86 -137 0 -9 -71 -12 -280 -12 -209
0 -280 3 -280 12 0 6 9 31 21 55 26 53 97 117 152 137 56 19 153 20 210 0z
m177 -367 c0 -22 -55 -101 -91 -131 -109 -92 -269 -92 -378 0 -36 30 -91 109
-91 131 0 10 56 13 280 13 224 0 280 -3 280 -13z"/>
</g>
</svg>
