<?xml version="1.0" standalone="no"?>
<!DOCTYPE svg PUBLIC "-//W3C//DTD SVG 20010904//EN"
 "http://www.w3.org/TR/2001/REC-SVG-20010904/DTD/svg10.dtd">
<svg version="1.0" xmlns="http://www.w3.org/2000/svg"
 width="512.000000pt" height="512.000000pt" viewBox="0 0 512.000000 512.000000"
 preserveAspectRatio="xMidYMid meet">

<g transform="translate(0.000000,512.000000) scale(0.100000,-0.100000)"
fill="#000000" stroke="none">
<path d="M1025 4216 c-28 -12 -65 -39 -82 -59 -66 -75 -63 -14 -63 -1357 0
-1343 -3 -1282 63 -1357 17 -20 54 -47 82 -59 45 -21 64 -24 193 -24 l142 0 0
-128 c0 -193 32 -270 134 -325 l41 -22 1265 0 1265 0 42 22 c54 29 100 86 118
147 22 74 22 2458 0 2532 -19 66 -67 121 -129 150 -46 22 -65 24 -193 24
l-143 0 0 128 c0 199 -34 277 -145 328 l-50 24 -1245 0 -1245 0 -50 -24z
m2546 -165 l29 -29 0 -1222 0 -1222 -29 -29 -29 -29 -1222 0 -1222 0 -29 29
-29 29 0 1222 0 1222 29 29 29 29 1222 0 1222 0 29 -29z m480 -480 l29 -29 0
-1222 0 -1222 -29 -29 -29 -29 -1222 0 -1222 0 -29 29 -29 29 0 131 0 131
1023 0 1022 0 50 24 c28 12 65 39 82 59 65 74 63 35 63 1149 l0 1008 131 0
131 0 29 -29z"/>
</g>
</svg>
